<svg xmlns="http://www.w3.org/2000/svg" viewBox="0 0 1200 800" preserveAspectRatio="xMidYMid slice">
<style>
 .edge{stroke-linecap:round;animation:draw 1.8s ease forwards;animation-delay:var(--d)}
 @keyframes draw{to{stroke-dashoffset:0}}
 .node{transform-box:fill-box;transform-origin:center;opacity:0;animation:pop .9s cubic-bezier(.2,.8,.3,1) forwards;animation-delay:var(--d)}
 @keyframes pop{0%{opacity:0;transform:scale(0)}70%{opacity:1;transform:scale(1.18)}100%{opacity:.92;transform:scale(1)}}
 .tw{animation:pop .9s cubic-bezier(.2,.8,.3,1) forwards,tw 5.5s ease-in-out infinite;animation-delay:var(--d),calc(var(--d) + 1.1s)}
 @keyframes tw{0%,100%{opacity:.5}50%{opacity:1}}
 .breathe{animation:breathe 10s ease-in-out infinite}
 @keyframes breathe{0%,100%{opacity:.9}50%{opacity:1}}
</style>
<g class="breathe">
<path class="edge" d="M 222.9 554.1 Q 221.5 425.1 270.9 305.9" fill="none" stroke="#C9A961" stroke-width="1.8" opacity="0.67" style="--d:1.72s;stroke-dasharray:258.0;stroke-dashoffset:258.0"/>
<path class="edge" d="M 222.9 554.1 Q 146.7 427.2 129.0 280.2" fill="none" stroke="#C9A961" stroke-width="0.85" opacity="0.67" style="--d:2.14s;stroke-dasharray:296.1;stroke-dashoffset:296.1"/>
<path class="edge" d="M 677.6 644.5 Q 697.3 621.2 717.5 598.3" fill="none" stroke="#C9A961" stroke-width="1.18" opacity="0.43" style="--d:1.32s;stroke-dasharray:61.0;stroke-dashoffset:61.0"/>
<path class="edge" d="M 677.6 644.5 Q 667.2 587.4 645.2 533.7" fill="none" stroke="#C9A961" stroke-width="0.95" opacity="0.57" style="--d:0.17s;stroke-dasharray:116.1;stroke-dashoffset:116.1"/>
<path class="edge" d="M 270.9 305.9 Q 198.9 298.8 129.0 280.2" fill="none" stroke="#C9A961" stroke-width="1.76" opacity="0.63" style="--d:0.84s;stroke-dasharray:144.7;stroke-dashoffset:144.7"/>
<path class="edge" d="M 270.9 305.9 Q 355.3 280.3 419.5 219.8" fill="none" stroke="#C9A961" stroke-width="1.32" opacity="0.67" style="--d:1.65s;stroke-dasharray:176.4;stroke-dashoffset:176.4"/>
<path class="edge" d="M 645.2 533.7 Q 680.3 567.2 717.5 598.3" fill="none" stroke="#C9A961" stroke-width="1.05" opacity="0.49" style="--d:0.72s;stroke-dasharray:97.0;stroke-dashoffset:97.0"/>
<path class="edge" d="M 645.2 533.7 Q 701.4 546.1 755.5 526.6" fill="none" stroke="#C9A961" stroke-width="1.11" opacity="0.35" style="--d:0.7s;stroke-dasharray:115.0;stroke-dashoffset:115.0"/>
<path class="edge" d="M 528.0 584.2 Q 527.3 591.9 525.7 599.5" fill="none" stroke="#C9A961" stroke-width="1.31" opacity="0.48" style="--d:1.35s;stroke-dasharray:15.5;stroke-dashoffset:15.5"/>
<path class="edge" d="M 528.0 584.2 Q 581.1 546.1 645.2 533.7" fill="none" stroke="#C9A961" stroke-width="1.24" opacity="0.38" style="--d:0.92s;stroke-dasharray:130.7;stroke-dashoffset:130.7"/>
<path class="edge" d="M 857.0 163.6 Q 848.3 163.2 840.7 158.9" fill="none" stroke="#C9A961" stroke-width="1.62" opacity="0.55" style="--d:0.22s;stroke-dasharray:17.4;stroke-dashoffset:17.4"/>
<path class="edge" d="M 857.0 163.6 Q 763.9 150.6 673.8 123.8" fill="none" stroke="#C9A961" stroke-width="1.72" opacity="0.5" style="--d:0.78s;stroke-dasharray:188.0;stroke-dashoffset:188.0"/>
<path class="edge" d="M 936.8 577.7 Q 951.6 580.3 965.4 586.0" fill="none" stroke="#C9A961" stroke-width="1.34" opacity="0.46" style="--d:2.1s;stroke-dasharray:30.0;stroke-dashoffset:30.0"/>
<path class="edge" d="M 915.6 552.2 Q 917.0 549.4 916.7 546.3" fill="none" stroke="#C9A961" stroke-width="1.25" opacity="0.57" style="--d:1.18s;stroke-dasharray:6.3;stroke-dashoffset:6.3"/>
<path class="edge" d="M 915.6 552.2 Q 927.1 564.2 936.8 577.7" fill="none" stroke="#C9A961" stroke-width="0.9" opacity="0.53" style="--d:2.05s;stroke-dasharray:33.3;stroke-dashoffset:33.3"/>
<path class="edge" d="M 69.8 284.3 Q 59.1 273.4 45.7 266.2" fill="none" stroke="#C9A961" stroke-width="1.0" opacity="0.31" style="--d:0.72s;stroke-dasharray:30.5;stroke-dashoffset:30.5"/>
<path class="edge" d="M 69.8 284.3 Q 93.3 269.6 105.6 244.7" fill="none" stroke="#C9A961" stroke-width="1.74" opacity="0.35" style="--d:0.74s;stroke-dasharray:55.5;stroke-dashoffset:55.5"/>
<path class="edge" d="M 1095.0 732.4 Q 1007.9 679.0 965.4 586.0" fill="none" stroke="#C9A961" stroke-width="1.77" opacity="0.39" style="--d:1.58s;stroke-dasharray:204.4;stroke-dashoffset:204.4"/>
<path class="edge" d="M 1095.0 732.4 Q 993.1 678.3 936.8 577.7" fill="none" stroke="#C9A961" stroke-width="1.15" opacity="0.48" style="--d:0.33s;stroke-dasharray:230.7;stroke-dashoffset:230.7"/>
<path class="edge" d="M 129.0 280.2 Q 118.0 262.0 105.6 244.7" fill="none" stroke="#C9A961" stroke-width="1.24" opacity="0.31" style="--d:0.58s;stroke-dasharray:42.6;stroke-dashoffset:42.6"/>
<path class="edge" d="M 892.4 448.6 Q 904.9 497.4 916.7 546.3" fill="none" stroke="#C9A961" stroke-width="1.51" opacity="0.41" style="--d:2.03s;stroke-dasharray:100.7;stroke-dashoffset:100.7"/>
<path class="edge" d="M 840.7 158.9 Q 757.2 141.8 673.8 123.8" fill="none" stroke="#C9A961" stroke-width="1.29" opacity="0.63" style="--d:2.38s;stroke-dasharray:170.6;stroke-dashoffset:170.6"/>
<path class="edge" d="M 755.5 526.6 Q 727.8 557.8 717.5 598.3" fill="none" stroke="#C9A961" stroke-width="0.74" opacity="0.35" style="--d:2.15s;stroke-dasharray:83.5;stroke-dashoffset:83.5"/>
<path class="edge" d="M 419.5 219.8 Q 484.7 309.1 523.0 412.9" fill="none" stroke="#C9A961" stroke-width="1.39" opacity="0.58" style="--d:1.7s;stroke-dasharray:221.2;stroke-dashoffset:221.2"/>
<path class="edge" d="M 525.7 599.5 Q 575.5 548.5 645.2 533.7" fill="none" stroke="#C9A961" stroke-width="1.47" opacity="0.61" style="--d:0.84s;stroke-dasharray:142.5;stroke-dashoffset:142.5"/>
<path class="edge" d="M 523.0 412.9 Q 571.5 385.8 627.0 383.2" fill="none" stroke="#C9A961" stroke-width="1.33" opacity="0.56" style="--d:0.01s;stroke-dasharray:111.1;stroke-dashoffset:111.1"/>
<path class="edge" d="M 627.0 383.2 Q 655.0 456.2 645.2 533.7" fill="none" stroke="#C9A961" stroke-width="0.93" opacity="0.46" style="--d:1.65s;stroke-dasharray:156.3;stroke-dashoffset:156.3"/>
<path class="edge" d="M 916.7 546.3 Q 923.7 564.0 936.8 577.7" fill="none" stroke="#C9A961" stroke-width="1.47" opacity="0.66" style="--d:1.43s;stroke-dasharray:38.0;stroke-dashoffset:38.0"/>
<path class="edge" d="M 857.0 163.6 Q 678.1 272.3 523.0 412.9" fill="none" stroke="#C9A961" stroke-width="1.64" opacity="0.48" style="--d:2.06s;stroke-dasharray:418.7;stroke-dashoffset:418.7"/>
<path class="edge" d="M 755.5 526.6 Q 699.6 447.4 627.0 383.2" fill="none" stroke="#C9A961" stroke-width="1.7" opacity="0.48" style="--d:1.73s;stroke-dasharray:193.9;stroke-dashoffset:193.9"/>
<path class="edge" d="M 105.6 244.7 Q 488.0 266.2 857.0 163.6" fill="none" stroke="#C9A961" stroke-width="0.73" opacity="0.6" style="--d:0.73s;stroke-dasharray:766.0;stroke-dashoffset:766.0"/>
<circle class="node" cx="523.0" cy="412.9" r="9.9" fill="none" stroke="#C9A961" stroke-width="0.7" opacity="0.5" style="--d:0.37s"/>
<circle class="node" cx="1095.0" cy="732.4" r="8.5" fill="none" stroke="#C9A961" stroke-width="0.7" opacity="0.5" style="--d:1.43s"/>
<circle class="node" cx="105.6" cy="244.7" r="12.7" fill="none" stroke="#C9A961" stroke-width="0.7" opacity="0.5" style="--d:0.86s"/>
<circle class="node" cx="419.5" cy="219.8" r="8.6" fill="none" stroke="#C9A961" stroke-width="0.7" opacity="0.5" style="--d:1.52s"/>
<circle class="node tw" cx="222.9" cy="554.1" r="2.5" fill="#C9A961" style="--d:2.27s"/>
<circle class="node" cx="677.6" cy="644.5" r="2.6" fill="#C9A961" style="--d:0.64s"/>
<circle class="node" cx="270.9" cy="305.9" r="2.8" fill="#C9A961" style="--d:2.22s"/>
<circle class="node" cx="645.2" cy="533.7" r="2.6" fill="#C9A961" style="--d:0.07s"/>
<circle class="node" cx="528.0" cy="584.2" r="2.9" fill="#C9A961" style="--d:2.74s"/>
<circle class="node tw" cx="857.0" cy="163.6" r="3.0" fill="#C9A961" style="--d:1.96s"/>
<circle class="node tw" cx="936.8" cy="577.7" r="2.1" fill="#C9A961" style="--d:2.36s"/>
<circle class="node" cx="915.6" cy="552.2" r="7.5" fill="#E7D199" style="--d:1.81s"/>
<circle class="node" cx="69.8" cy="284.3" r="10.3" fill="#E7D199" style="--d:2.67s"/>
<circle class="node tw" cx="1095.0" cy="732.4" r="3.6" fill="#C9A961" style="--d:1.99s"/>
<circle class="node" cx="717.5" cy="598.3" r="4.0" fill="#4A2B5C" style="--d:0.82s"/>
<circle class="node" cx="129.0" cy="280.2" r="8.5" fill="#E7D199" style="--d:0.42s"/>
<circle class="node tw" cx="892.4" cy="448.6" r="3.3" fill="#C9A961" style="--d:1.71s"/>
<circle class="node" cx="840.7" cy="158.9" r="2.7" fill="#4A2B5C" style="--d:0.45s"/>
<circle class="node tw" cx="755.5" cy="526.6" r="4.0" fill="#C9A961" style="--d:0.12s"/>
<circle class="node" cx="419.5" cy="219.8" r="5.0" fill="#C9A961" style="--d:1.06s"/>
<circle class="node tw" cx="673.8" cy="123.8" r="3.9" fill="#C9A961" style="--d:0.2s"/>
<circle class="node" cx="525.7" cy="599.5" r="10.0" fill="#E7D199" style="--d:1.61s"/>
<circle class="node" cx="523.0" cy="412.9" r="3.3" fill="#C9A961" style="--d:2.08s"/>
<circle class="node tw" cx="627.0" cy="383.2" r="2.6" fill="#C9A961" style="--d:0.38s"/>
<circle class="node" cx="105.6" cy="244.7" r="7.7" fill="#E7D199" style="--d:0.88s"/>
<circle class="node" cx="916.7" cy="546.3" r="9.0" fill="#E7D199" style="--d:1.68s"/>
<circle class="node" cx="965.4" cy="586.0" r="4.1" fill="#C9A961" style="--d:1.37s"/>
<circle class="node tw" cx="45.7" cy="266.2" r="3.8" fill="#C9A961" style="--d:1.05s"/>
</g></svg>