<svg xmlns="http://www.w3.org/2000/svg" viewBox="0 0 1200 800" preserveAspectRatio="xMidYMid slice">
<style>
 .edge{stroke-linecap:round;animation:draw 1.8s ease forwards;animation-delay:var(--d)}
 @keyframes draw{to{stroke-dashoffset:0}}
 .node{transform-box:fill-box;transform-origin:center;opacity:0;animation:pop .9s cubic-bezier(.2,.8,.3,1) forwards;animation-delay:var(--d)}
 @keyframes pop{0%{opacity:0;transform:scale(0)}70%{opacity:1;transform:scale(1.18)}100%{opacity:.92;transform:scale(1)}}
 .tw{animation:pop .9s cubic-bezier(.2,.8,.3,1) forwards,tw 5.5s ease-in-out infinite;animation-delay:var(--d),calc(var(--d) + 1.1s)}
 @keyframes tw{0%,100%{opacity:.5}50%{opacity:1}}
 .breathe{animation:breathe 10s ease-in-out infinite}
 @keyframes breathe{0%,100%{opacity:.9}50%{opacity:1}}
</style>
<g class="breathe">
<path class="edge" d="M 336.0 367.2 Q 330.7 415.1 305.5 456.3" fill="none" stroke="#C9A961" stroke-width="0.79" opacity="0.27" style="--d:1.5s;stroke-dasharray:96.5;stroke-dashoffset:96.5"/>
<path class="edge" d="M 911.8 329.9 Q 900.7 354.9 879.2 371.7" fill="none" stroke="#C9A961" stroke-width="0.41" opacity="0.32" style="--d:1.28s;stroke-dasharray:54.6;stroke-dashoffset:54.6"/>
<path class="edge" d="M 911.8 329.9 Q 927.0 369.1 954.2 401.3" fill="none" stroke="#C9A961" stroke-width="0.72" opacity="0.35" style="--d:0.49s;stroke-dasharray:84.2;stroke-dashoffset:84.2"/>
<path class="edge" d="M 911.8 329.9 Q 953.8 368.1 971.3 422.1" fill="none" stroke="#C9A961" stroke-width="0.66" opacity="0.24" style="--d:0.58s;stroke-dasharray:113.5;stroke-dashoffset:113.5"/>
<path class="edge" d="M 45.2 45.7 Q 67.9 68.9 80.6 98.8" fill="none" stroke="#C9A961" stroke-width="0.78" opacity="0.35" style="--d:1.38s;stroke-dasharray:65.0;stroke-dashoffset:65.0"/>
<path class="edge" d="M 45.2 45.7 Q 107.6 91.0 178.1 122.4" fill="none" stroke="#C9A961" stroke-width="0.51" opacity="0.29" style="--d:0.02s;stroke-dasharray:154.3;stroke-dashoffset:154.3"/>
<path class="edge" d="M 67.7 272.2 Q 121.6 288.0 176.3 275.0" fill="none" stroke="#C9A961" stroke-width="0.76" opacity="0.22" style="--d:0.86s;stroke-dasharray:112.4;stroke-dashoffset:112.4"/>
<path class="edge" d="M 683.1 442.1 Q 670.2 456.0 657.2 469.9" fill="none" stroke="#C9A961" stroke-width="0.75" opacity="0.36" style="--d:2.14s;stroke-dasharray:38.0;stroke-dashoffset:38.0"/>
<path class="edge" d="M 683.1 442.1 Q 707.8 462.3 722.7 490.5" fill="none" stroke="#C9A961" stroke-width="0.39" opacity="0.47" style="--d:2.22s;stroke-dasharray:63.8;stroke-dashoffset:63.8"/>
<path class="edge" d="M 683.1 442.1 Q 647.7 476.4 626.2 520.7" fill="none" stroke="#C9A961" stroke-width="0.63" opacity="0.25" style="--d:1.73s;stroke-dasharray:98.5;stroke-dashoffset:98.5"/>
<path class="edge" d="M 893.5 597.6 Q 896.2 590.7 900.2 584.4" fill="none" stroke="#C9A961" stroke-width="0.69" opacity="0.31" style="--d:1.59s;stroke-dasharray:14.9;stroke-dashoffset:14.9"/>
<path class="edge" d="M 997.8 148.9 Q 1033.2 167.9 1073.1 172.4" fill="none" stroke="#C9A961" stroke-width="0.5" opacity="0.23" style="--d:0.13s;stroke-dasharray:80.3;stroke-dashoffset:80.3"/>
<path class="edge" d="M 519.7 496.0 Q 483.0 490.8 448.3 477.6" fill="none" stroke="#C9A961" stroke-width="0.75" opacity="0.25" style="--d:1.9s;stroke-dasharray:74.2;stroke-dashoffset:74.2"/>
<path class="edge" d="M 519.7 496.0 Q 490.4 536.2 452.3 568.2" fill="none" stroke="#C9A961" stroke-width="0.7" opacity="0.33" style="--d:0.27s;stroke-dasharray:99.5;stroke-dashoffset:99.5"/>
<path class="edge" d="M 847.9 210.5 Q 842.0 210.1 836.6 207.8" fill="none" stroke="#C9A961" stroke-width="0.8" opacity="0.32" style="--d:0.9s;stroke-dasharray:11.8;stroke-dashoffset:11.8"/>
<path class="edge" d="M 279.8 481.9 Q 294.2 470.7 305.5 456.3" fill="none" stroke="#C9A961" stroke-width="0.6" opacity="0.36" style="--d:1.51s;stroke-dasharray:36.5;stroke-dashoffset:36.5"/>
<path class="edge" d="M 279.8 481.9 Q 271.0 503.2 258.6 522.7" fill="none" stroke="#C9A961" stroke-width="0.61" opacity="0.29" style="--d:0.48s;stroke-dasharray:46.2;stroke-dashoffset:46.2"/>
<path class="edge" d="M 279.8 481.9 Q 307.2 482.6 333.9 489.1" fill="none" stroke="#C9A961" stroke-width="0.83" opacity="0.32" style="--d:0.45s;stroke-dasharray:54.9;stroke-dashoffset:54.9"/>
<path class="edge" d="M 761.4 674.9 Q 790.9 636.3 832.5 611.4" fill="none" stroke="#C9A961" stroke-width="0.46" opacity="0.44" style="--d:0.08s;stroke-dasharray:97.1;stroke-dashoffset:97.1"/>
<path class="edge" d="M 761.4 674.9 Q 713.7 700.9 661.7 716.5" fill="none" stroke="#C9A961" stroke-width="0.47" opacity="0.38" style="--d:1.6s;stroke-dasharray:108.6;stroke-dashoffset:108.6"/>
<path class="edge" d="M 761.4 674.9 Q 706.6 668.1 652.4 657.9" fill="none" stroke="#C9A961" stroke-width="0.63" opacity="0.31" style="--d:1.77s;stroke-dasharray:110.4;stroke-dashoffset:110.4"/>
<path class="edge" d="M 452.3 568.2 Q 443.9 523.2 448.3 477.6" fill="none" stroke="#C9A961" stroke-width="0.79" opacity="0.39" style="--d:1.43s;stroke-dasharray:91.6;stroke-dashoffset:91.6"/>
<path class="edge" d="M 1038.7 461.8 Q 1021.6 491.8 1003.7 521.4" fill="none" stroke="#C9A961" stroke-width="0.82" opacity="0.44" style="--d:0.79s;stroke-dasharray:69.1;stroke-dashoffset:69.1"/>
<path class="edge" d="M 1038.7 461.8 Q 1074.7 472.7 1102.4 498.0" fill="none" stroke="#C9A961" stroke-width="0.76" opacity="0.39" style="--d:1.63s;stroke-dasharray:75.1;stroke-dashoffset:75.1"/>
<path class="edge" d="M 1038.7 461.8 Q 1010.9 431.9 971.3 422.1" fill="none" stroke="#C9A961" stroke-width="0.48" opacity="0.48" style="--d:2.11s;stroke-dasharray:81.6;stroke-dashoffset:81.6"/>
<path class="edge" d="M 589.5 306.4 Q 605.5 307.0 620.9 311.1" fill="none" stroke="#C9A961" stroke-width="0.86" opacity="0.25" style="--d:0.91s;stroke-dasharray:31.9;stroke-dashoffset:31.9"/>
<path class="edge" d="M 695.1 334.6 Q 657.2 325.3 620.9 311.1" fill="none" stroke="#C9A961" stroke-width="0.49" opacity="0.28" style="--d:1.5s;stroke-dasharray:78.0;stroke-dashoffset:78.0"/>
<path class="edge" d="M 695.1 334.6 Q 736.2 307.4 764.6 267.2" fill="none" stroke="#C9A961" stroke-width="0.74" opacity="0.42" style="--d:1.47s;stroke-dasharray:98.5;stroke-dashoffset:98.5"/>
<path class="edge" d="M 695.1 334.6 Q 676.3 386.9 683.1 442.1" fill="none" stroke="#C9A961" stroke-width="0.78" opacity="0.47" style="--d:2.14s;stroke-dasharray:111.2;stroke-dashoffset:111.2"/>
<path class="edge" d="M 782.5 50.1 Q 806.3 62.7 830.0 75.3" fill="none" stroke="#C9A961" stroke-width="0.62" opacity="0.47" style="--d:1.68s;stroke-dasharray:53.8;stroke-dashoffset:53.8"/>
<path class="edge" d="M 626.2 520.7 Q 644.2 496.8 657.2 469.9" fill="none" stroke="#C9A961" stroke-width="0.7" opacity="0.29" style="--d:1.03s;stroke-dasharray:59.8;stroke-dashoffset:59.8"/>
<path class="edge" d="M 626.2 520.7 Q 647.7 562.2 648.3 608.9" fill="none" stroke="#C9A961" stroke-width="0.42" opacity="0.21" style="--d:0.93s;stroke-dasharray:93.4;stroke-dashoffset:93.4"/>
<path class="edge" d="M 366.9 517.8 Q 346.7 507.8 333.9 489.1" fill="none" stroke="#C9A961" stroke-width="0.75" opacity="0.22" style="--d:1.09s;stroke-dasharray:45.2;stroke-dashoffset:45.2"/>
<path class="edge" d="M 366.9 517.8 Q 338.9 484.4 305.5 456.3" fill="none" stroke="#C9A961" stroke-width="0.62" opacity="0.29" style="--d:0.27s;stroke-dasharray:87.2;stroke-dashoffset:87.2"/>
<path class="edge" d="M 366.9 517.8 Q 406.9 496.3 448.3 477.6" fill="none" stroke="#C9A961" stroke-width="0.57" opacity="0.31" style="--d:1.71s;stroke-dasharray:90.8;stroke-dashoffset:90.8"/>
<path class="edge" d="M 1102.4 498.0 Q 1106.2 546.5 1123.7 591.9" fill="none" stroke="#C9A961" stroke-width="0.53" opacity="0.4" style="--d:0.28s;stroke-dasharray:97.3;stroke-dashoffset:97.3"/>
<path class="edge" d="M 800.4 280.3 Q 783.9 269.9 764.6 267.2" fill="none" stroke="#C9A961" stroke-width="0.49" opacity="0.38" style="--d:2.35s;stroke-dasharray:39.0;stroke-dashoffset:39.0"/>
<path class="edge" d="M 1073.1 172.4 Q 1079.3 213.8 1075.5 255.5" fill="none" stroke="#C9A961" stroke-width="0.79" opacity="0.25" style="--d:1.68s;stroke-dasharray:83.7;stroke-dashoffset:83.7"/>
<path class="edge" d="M 1073.1 172.4 Q 1088.7 228.7 1092.9 286.9" fill="none" stroke="#C9A961" stroke-width="0.54" opacity="0.38" style="--d:2.25s;stroke-dasharray:116.8;stroke-dashoffset:116.8"/>
<path class="edge" d="M 256.3 583.6 Q 243.6 568.2 225.9 559.0" fill="none" stroke="#C9A961" stroke-width="0.76" opacity="0.21" style="--d:0.67s;stroke-dasharray:39.9;stroke-dashoffset:39.9"/>
<path class="edge" d="M 256.3 583.6 Q 254.3 553.0 258.6 522.7" fill="none" stroke="#C9A961" stroke-width="0.53" opacity="0.27" style="--d:0.4s;stroke-dasharray:61.3;stroke-dashoffset:61.3"/>
<path class="edge" d="M 89.3 722.8 Q 62.9 682.0 63.6 633.4" fill="none" stroke="#C9A961" stroke-width="0.44" opacity="0.36" style="--d:1.93s;stroke-dasharray:97.2;stroke-dashoffset:97.2"/>
<path class="edge" d="M 89.3 722.8 Q 140.6 645.0 186.3 563.8" fill="none" stroke="#C9A961" stroke-width="0.79" opacity="0.38" style="--d:2.04s;stroke-dasharray:186.4;stroke-dashoffset:186.4"/>
<path class="edge" d="M 89.3 722.8 Q 122.5 631.6 189.9 561.8" fill="none" stroke="#C9A961" stroke-width="0.4" opacity="0.46" style="--d:1.83s;stroke-dasharray:194.1;stroke-dashoffset:194.1"/>
<path class="edge" d="M 225.9 559.0 Q 208.1 562.6 189.9 561.8" fill="none" stroke="#C9A961" stroke-width="0.46" opacity="0.32" style="--d:0.61s;stroke-dasharray:36.4;stroke-dashoffset:36.4"/>
<path class="edge" d="M 225.9 559.0 Q 205.7 557.7 186.3 563.8" fill="none" stroke="#C9A961" stroke-width="0.74" opacity="0.4" style="--d:2.05s;stroke-dasharray:40.6;stroke-dashoffset:40.6"/>
<path class="edge" d="M 305.9 141.4 Q 339.3 164.0 363.7 196.0" fill="none" stroke="#C9A961" stroke-width="0.51" opacity="0.33" style="--d:0.77s;stroke-dasharray:80.6;stroke-dashoffset:80.6"/>
<path class="edge" d="M 305.9 141.4 Q 348.2 155.2 392.2 148.4" fill="none" stroke="#C9A961" stroke-width="0.39" opacity="0.47" style="--d:2.39s;stroke-dasharray:89.0;stroke-dashoffset:89.0"/>
<path class="edge" d="M 1092.9 286.9 Q 1088.4 268.9 1075.5 255.5" fill="none" stroke="#C9A961" stroke-width="0.71" opacity="0.42" style="--d:1.11s;stroke-dasharray:37.2;stroke-dashoffset:37.2"/>
<path class="edge" d="M 531.5 125.5 Q 509.9 122.6 491.1 111.7" fill="none" stroke="#C9A961" stroke-width="0.87" opacity="0.44" style="--d:1.48s;stroke-dasharray:43.5;stroke-dashoffset:43.5"/>
<path class="edge" d="M 186.3 563.8 Q 188.4 563.3 189.9 561.8" fill="none" stroke="#C9A961" stroke-width="0.73" opacity="0.34" style="--d:0.2s;stroke-dasharray:4.3;stroke-dashoffset:4.3"/>
<path class="edge" d="M 333.9 489.1 Q 324.0 469.0 305.5 456.3" fill="none" stroke="#C9A961" stroke-width="0.64" opacity="0.24" style="--d:0.4s;stroke-dasharray:44.8;stroke-dashoffset:44.8"/>
<path class="edge" d="M 816.8 434.0 Q 834.3 443.5 854.0 445.7" fill="none" stroke="#C9A961" stroke-width="0.37" opacity="0.29" style="--d:1.73s;stroke-dasharray:39.7;stroke-dashoffset:39.7"/>
<path class="edge" d="M 816.8 434.0 Q 840.9 395.7 879.2 371.7" fill="none" stroke="#C9A961" stroke-width="0.68" opacity="0.23" style="--d:1.53s;stroke-dasharray:90.5;stroke-dashoffset:90.5"/>
<path class="edge" d="M 661.7 716.5 Q 665.5 685.9 652.4 657.9" fill="none" stroke="#C9A961" stroke-width="0.58" opacity="0.36" style="--d:2.32s;stroke-dasharray:61.8;stroke-dashoffset:61.8"/>
<path class="edge" d="M 661.7 716.5 Q 650.3 663.3 648.3 608.9" fill="none" stroke="#C9A961" stroke-width="0.56" opacity="0.33" style="--d:1.45s;stroke-dasharray:108.8;stroke-dashoffset:108.8"/>
<path class="edge" d="M 854.0 445.7 Q 872.5 410.7 879.2 371.7" fill="none" stroke="#C9A961" stroke-width="0.51" opacity="0.41" style="--d:0.45s;stroke-dasharray:79.2;stroke-dashoffset:79.2"/>
<path class="edge" d="M 903.1 64.3 Q 878.7 83.0 849.3 92.2" fill="none" stroke="#C9A961" stroke-width="0.83" opacity="0.25" style="--d:0.17s;stroke-dasharray:61.5;stroke-dashoffset:61.5"/>
<path class="edge" d="M 849.3 92.2 Q 839.2 84.3 830.0 75.3" fill="none" stroke="#C9A961" stroke-width="0.49" opacity="0.3" style="--d:0.75s;stroke-dasharray:25.7;stroke-dashoffset:25.7"/>
<path class="edge" d="M 849.3 92.2 Q 816.4 70.4 782.5 50.1" fill="none" stroke="#C9A961" stroke-width="0.63" opacity="0.22" style="--d:0.28s;stroke-dasharray:79.0;stroke-dashoffset:79.0"/>
<path class="edge" d="M 879.2 371.7 Q 920.7 376.4 954.2 401.3" fill="none" stroke="#C9A961" stroke-width="0.48" opacity="0.3" style="--d:0.49s;stroke-dasharray:83.5;stroke-dashoffset:83.5"/>
<path class="edge" d="M 832.5 611.4 Q 862.1 600.4 893.5 597.6" fill="none" stroke="#C9A961" stroke-width="0.7" opacity="0.34" style="--d:2.01s;stroke-dasharray:63.1;stroke-dashoffset:63.1"/>
<path class="edge" d="M 832.5 611.4 Q 868.7 603.8 900.2 584.4" fill="none" stroke="#C9A961" stroke-width="0.52" opacity="0.37" style="--d:1.65s;stroke-dasharray:74.0;stroke-dashoffset:74.0"/>
<path class="edge" d="M 832.5 611.4 Q 836.6 571.5 828.3 532.2" fill="none" stroke="#C9A961" stroke-width="0.75" opacity="0.38" style="--d:1.28s;stroke-dasharray:80.3;stroke-dashoffset:80.3"/>
<path class="edge" d="M 954.2 401.3 Q 959.9 414.0 971.3 422.1" fill="none" stroke="#C9A961" stroke-width="0.7" opacity="0.47" style="--d:0.63s;stroke-dasharray:27.9;stroke-dashoffset:27.9"/>
<path class="edge" d="M 900.2 584.4 Q 864.7 557.7 828.3 532.2" fill="none" stroke="#C9A961" stroke-width="0.4" opacity="0.4" style="--d:2.17s;stroke-dasharray:88.9;stroke-dashoffset:88.9"/>
<path class="edge" d="M 63.6 633.4 Q 119.7 589.4 186.3 563.8" fill="none" stroke="#C9A961" stroke-width="0.57" opacity="0.35" style="--d:1.8s;stroke-dasharray:142.6;stroke-dashoffset:142.6"/>
<path class="edge" d="M 63.6 633.4 Q 121.0 587.4 189.9 561.8" fill="none" stroke="#C9A961" stroke-width="0.8" opacity="0.38" style="--d:0.62s;stroke-dasharray:147.1;stroke-dashoffset:147.1"/>
<path class="edge" d="M 838.1 247.6 Q 844.5 229.5 847.9 210.5" fill="none" stroke="#C9A961" stroke-width="0.5" opacity="0.47" style="--d:0.28s;stroke-dasharray:38.5;stroke-dashoffset:38.5"/>
<path class="edge" d="M 838.1 247.6 Q 833.6 227.8 836.6 207.8" fill="none" stroke="#C9A961" stroke-width="0.72" opacity="0.35" style="--d:1.29s;stroke-dasharray:40.5;stroke-dashoffset:40.5"/>
<path class="edge" d="M 838.1 247.6 Q 818.7 263.3 800.4 280.3" fill="none" stroke="#C9A961" stroke-width="0.76" opacity="0.27" style="--d:2.33s;stroke-dasharray:49.9;stroke-dashoffset:49.9"/>
<path class="edge" d="M 243.2 302.7 Q 209.1 290.3 176.3 275.0" fill="none" stroke="#C9A961" stroke-width="0.71" opacity="0.39" style="--d:1.01s;stroke-dasharray:72.5;stroke-dashoffset:72.5"/>
<path class="edge" d="M 243.2 302.7 Q 294.5 327.9 336.0 367.2" fill="none" stroke="#C9A961" stroke-width="0.58" opacity="0.21" style="--d:1.66s;stroke-dasharray:114.3;stroke-dashoffset:114.3"/>
<path class="edge" d="M 305.5 456.3 Q 286.5 492.6 258.6 522.7" fill="none" stroke="#C9A961" stroke-width="0.45" opacity="0.39" style="--d:0.9s;stroke-dasharray:82.0;stroke-dashoffset:82.0"/>
<path class="edge" d="M 1075.5 255.5 Q 1098.8 296.9 1141.6 317.4" fill="none" stroke="#C9A961" stroke-width="0.68" opacity="0.44" style="--d:2.24s;stroke-dasharray:94.9;stroke-dashoffset:94.9"/>
<path class="edge" d="M 722.7 490.5 Q 689.9 480.4 657.2 469.9" fill="none" stroke="#C9A961" stroke-width="0.82" opacity="0.23" style="--d:1.41s;stroke-dasharray:68.7;stroke-dashoffset:68.7"/>
<path class="edge" d="M 722.7 490.5 Q 675.8 509.9 626.2 520.7" fill="none" stroke="#C9A961" stroke-width="0.53" opacity="0.32" style="--d:0.9s;stroke-dasharray:101.5;stroke-dashoffset:101.5"/>
<path class="edge" d="M 70.6 483.6 Q 139.8 507.3 186.3 563.8" fill="none" stroke="#C9A961" stroke-width="0.85" opacity="0.27" style="--d:1.63s;stroke-dasharray:146.3;stroke-dashoffset:146.3"/>
<path class="edge" d="M 70.6 483.6 Q 138.1 510.7 189.9 561.8" fill="none" stroke="#C9A961" stroke-width="0.77" opacity="0.27" style="--d:0.8s;stroke-dasharray:145.5;stroke-dashoffset:145.5"/>
<path class="edge" d="M 779.2 212.9 Q 767.2 238.8 764.6 267.2" fill="none" stroke="#C9A961" stroke-width="0.66" opacity="0.4" style="--d:0.41s;stroke-dasharray:57.1;stroke-dashoffset:57.1"/>
<path class="edge" d="M 779.2 212.9 Q 808.2 213.5 836.6 207.8" fill="none" stroke="#C9A961" stroke-width="0.85" opacity="0.44" style="--d:0.2s;stroke-dasharray:58.0;stroke-dashoffset:58.0"/>
<path class="edge" d="M 779.2 212.9 Q 808.9 229.9 838.1 247.6" fill="none" stroke="#C9A961" stroke-width="0.67" opacity="0.25" style="--d:2.06s;stroke-dasharray:68.4;stroke-dashoffset:68.4"/>
<path class="edge" d="M 457.9 217.0 Q 498.3 194.9 541.3 178.3" fill="none" stroke="#C9A961" stroke-width="0.59" opacity="0.22" style="--d:1.97s;stroke-dasharray:92.1;stroke-dashoffset:92.1"/>
<path class="edge" d="M 258.6 522.7 Q 246.1 544.3 225.9 559.0" fill="none" stroke="#C9A961" stroke-width="0.66" opacity="0.38" style="--d:0.45s;stroke-dasharray:50.0;stroke-dashoffset:50.0"/>
<path class="edge" d="M 178.1 122.4 Q 129.0 112.2 80.6 98.8" fill="none" stroke="#C9A961" stroke-width="0.86" opacity="0.3" style="--d:0.97s;stroke-dasharray:100.4;stroke-dashoffset:100.4"/>
<path class="edge" d="M 178.1 122.4 Q 241.0 138.9 305.9 141.4" fill="none" stroke="#C9A961" stroke-width="0.62" opacity="0.26" style="--d:0.49s;stroke-dasharray:130.0;stroke-dashoffset:130.0"/>
<path class="edge" d="M 541.3 178.3 Q 529.9 153.1 531.5 125.5" fill="none" stroke="#C9A961" stroke-width="0.41" opacity="0.31" style="--d:0.81s;stroke-dasharray:55.3;stroke-dashoffset:55.3"/>
<path class="edge" d="M 1141.6 317.4 Q 1118.7 299.8 1092.9 286.9" fill="none" stroke="#C9A961" stroke-width="0.77" opacity="0.34" style="--d:1.32s;stroke-dasharray:57.7;stroke-dashoffset:57.7"/>
<path class="edge" d="M 876.4 687.9 Q 911.4 696.8 937.4 722.0" fill="none" stroke="#C9A961" stroke-width="0.56" opacity="0.41" style="--d:1.75s;stroke-dasharray:72.3;stroke-dashoffset:72.3"/>
<path class="edge" d="M 876.4 687.9 Q 866.1 643.0 832.5 611.4" fill="none" stroke="#C9A961" stroke-width="0.48" opacity="0.31" style="--d:1.26s;stroke-dasharray:92.2;stroke-dashoffset:92.2"/>
<path class="edge" d="M 876.4 687.9 Q 884.9 642.7 893.5 597.6" fill="none" stroke="#C9A961" stroke-width="0.4" opacity="0.32" style="--d:0.77s;stroke-dasharray:91.9;stroke-dashoffset:91.9"/>
<path class="edge" d="M 363.7 196.0 Q 380.3 173.6 392.2 148.4" fill="none" stroke="#C9A961" stroke-width="0.75" opacity="0.45" style="--d:1.96s;stroke-dasharray:55.8;stroke-dashoffset:55.8"/>
<path class="edge" d="M 363.7 196.0 Q 408.8 215.6 457.9 217.0" fill="none" stroke="#C9A961" stroke-width="0.69" opacity="0.22" style="--d:0.99s;stroke-dasharray:98.3;stroke-dashoffset:98.3"/>
<path class="edge" d="M 1123.7 591.9 Q 1070.3 545.4 1003.7 521.4" fill="none" stroke="#C9A961" stroke-width="0.49" opacity="0.34" style="--d:1.7s;stroke-dasharray:141.6;stroke-dashoffset:141.6"/>
<path class="edge" d="M 708.3 177.5 Q 746.3 190.0 779.2 212.9" fill="none" stroke="#C9A961" stroke-width="0.57" opacity="0.42" style="--d:1.91s;stroke-dasharray:80.1;stroke-dashoffset:80.1"/>
<path class="edge" d="M 708.3 177.5 Q 724.3 230.0 764.6 267.2" fill="none" stroke="#C9A961" stroke-width="0.55" opacity="0.3" style="--d:1.87s;stroke-dasharray:109.7;stroke-dashoffset:109.7"/>
<path class="edge" d="M 708.3 177.5 Q 768.1 211.0 836.6 207.8" fill="none" stroke="#C9A961" stroke-width="0.45" opacity="0.31" style="--d:2.17s;stroke-dasharray:137.1;stroke-dashoffset:137.1"/>
<path class="edge" d="M 830.0 75.3 Q 867.6 76.5 903.1 64.3" fill="none" stroke="#C9A961" stroke-width="0.5" opacity="0.33" style="--d:1.82s;stroke-dasharray:75.2;stroke-dashoffset:75.2"/>
<path class="edge" d="M 648.3 608.9 Q 643.1 634.0 652.4 657.9" fill="none" stroke="#C9A961" stroke-width="0.49" opacity="0.39" style="--d:0.22s;stroke-dasharray:51.3;stroke-dashoffset:51.3"/>
<path class="edge" d="M 1003.7 521.4 Q 1056.1 522.6 1102.4 498.0" fill="none" stroke="#C9A961" stroke-width="0.6" opacity="0.42" style="--d:2.27s;stroke-dasharray:104.8;stroke-dashoffset:104.8"/>
<path class="edge" d="M 1003.7 521.4 Q 1002.5 466.9 971.3 422.1" fill="none" stroke="#C9A961" stroke-width="0.47" opacity="0.28" style="--d:0.79s;stroke-dasharray:109.1;stroke-dashoffset:109.1"/>
<path class="edge" d="M 937.4 722.0 Q 926.7 655.8 893.5 597.6" fill="none" stroke="#C9A961" stroke-width="0.64" opacity="0.46" style="--d:0.33s;stroke-dasharray:134.1;stroke-dashoffset:134.1"/>
<path class="edge" d="M 531.5 125.5 Q 534.3 354.4 452.3 568.2" fill="none" stroke="#C9A961" stroke-width="0.63" opacity="0.47" style="--d:1.51s;stroke-dasharray:457.9;stroke-dashoffset:457.9"/>
<path class="edge" d="M 838.1 247.6 Q 979.4 421.0 1123.7 591.9" fill="none" stroke="#C9A961" stroke-width="0.82" opacity="0.41" style="--d:1.18s;stroke-dasharray:447.4;stroke-dashoffset:447.4"/>
<path class="edge" d="M 1102.4 498.0 Q 546.2 414.4 80.6 98.8" fill="none" stroke="#C9A961" stroke-width="0.56" opacity="0.47" style="--d:1.93s;stroke-dasharray:1124.9;stroke-dashoffset:1124.9"/>
<path class="edge" d="M 911.8 329.9 Q 865.7 379.2 854.0 445.7" fill="none" stroke="#C9A961" stroke-width="0.57" opacity="0.27" style="--d:1.18s;stroke-dasharray:135.0;stroke-dashoffset:135.0"/>
<path class="edge" d="M 900.2 584.4 Q 661.8 377.3 491.1 111.7" fill="none" stroke="#C9A961" stroke-width="0.44" opacity="0.4" style="--d:0.49s;stroke-dasharray:631.5;stroke-dashoffset:631.5"/>
<path class="edge" d="M 879.2 371.7 Q 973.9 298.6 1092.9 286.9" fill="none" stroke="#C9A961" stroke-width="0.66" opacity="0.41" style="--d:1.44s;stroke-dasharray:239.2;stroke-dashoffset:239.2"/>
<path class="edge" d="M 997.8 148.9 Q 805.9 221.9 620.9 311.1" fill="none" stroke="#C9A961" stroke-width="0.5" opacity="0.23" style="--d:2.23s;stroke-dasharray:410.7;stroke-dashoffset:410.7"/>
<circle class="node" cx="854.0" cy="445.7" r="7.3" fill="none" stroke="#C9A961" stroke-width="0.7" opacity="0.35" style="--d:1.7s"/>
<circle class="node" cx="683.1" cy="442.1" r="4.2" fill="none" stroke="#C9A961" stroke-width="0.7" opacity="0.35" style="--d:1.4s"/>
<circle class="node" cx="657.2" cy="469.9" r="4.1" fill="none" stroke="#C9A961" stroke-width="0.7" opacity="0.35" style="--d:2.52s"/>
<circle class="node" cx="1123.7" cy="591.9" r="10.2" fill="none" stroke="#C9A961" stroke-width="0.7" opacity="0.35" style="--d:1.53s"/>
<circle class="node" cx="722.7" cy="490.5" r="6.7" fill="none" stroke="#C9A961" stroke-width="0.7" opacity="0.35" style="--d:1.83s"/>
<circle class="node" cx="258.6" cy="522.7" r="7.4" fill="none" stroke="#C9A961" stroke-width="0.7" opacity="0.35" style="--d:2.37s"/>
<circle class="node" cx="838.1" cy="247.6" r="6.1" fill="none" stroke="#C9A961" stroke-width="0.7" opacity="0.35" style="--d:0.7s"/>
<circle class="node" cx="519.7" cy="496.0" r="7.7" fill="none" stroke="#C9A961" stroke-width="0.7" opacity="0.35" style="--d:0.13s"/>
<circle class="node" cx="305.5" cy="456.3" r="10.4" fill="none" stroke="#C9A961" stroke-width="0.7" opacity="0.35" style="--d:0.8s"/>
<circle class="node" cx="652.4" cy="657.9" r="8.3" fill="none" stroke="#C9A961" stroke-width="0.7" opacity="0.35" style="--d:0.34s"/>
<circle class="node tw" cx="336.0" cy="367.2" r="1.4" fill="#C9A961" style="--d:1.67s"/>
<circle class="node" cx="911.8" cy="329.9" r="1.9" fill="#C9A961" style="--d:0.1s"/>
<circle class="node" cx="45.2" cy="45.7" r="0.6" fill="#C9A961" style="--d:0.74s"/>
<circle class="node" cx="67.7" cy="272.2" r="1.5" fill="#C9A961" style="--d:1.09s"/>
<circle class="node" cx="683.1" cy="442.1" r="1.1" fill="#C9A961" style="--d:2.21s"/>
<circle class="node" cx="893.5" cy="597.6" r="4.4" fill="#4A2B5C" style="--d:0.73s"/>
<circle class="node" cx="997.8" cy="148.9" r="1.2" fill="#C9A961" style="--d:1.94s"/>
<circle class="node" cx="519.7" cy="496.0" r="2.2" fill="#4A2B5C" style="--d:2.22s"/>
<circle class="node tw" cx="847.9" cy="210.5" r="0.7" fill="#C9A961" style="--d:0.97s"/>
<circle class="node" cx="279.8" cy="481.9" r="3.4" fill="#4A2B5C" style="--d:2.2s"/>
<circle class="node tw" cx="761.4" cy="674.9" r="1.7" fill="#C9A961" style="--d:0.7s"/>
<circle class="node" cx="452.3" cy="568.2" r="1.8" fill="#C9A961" style="--d:1.77s"/>
<circle class="node" cx="1038.7" cy="461.8" r="1.3" fill="#C9A961" style="--d:0.68s"/>
<circle class="node tw" cx="589.5" cy="306.4" r="1.5" fill="#C9A961" style="--d:0.61s"/>
<circle class="node" cx="695.1" cy="334.6" r="1.9" fill="#C9A961" style="--d:1.34s"/>
<circle class="node" cx="782.5" cy="50.1" r="1.1" fill="#4A2B5C" style="--d:1.81s"/>
<circle class="node" cx="448.3" cy="477.6" r="1.9" fill="#4A2B5C" style="--d:2.65s"/>
<circle class="node" cx="626.2" cy="520.7" r="1.7" fill="#C9A961" style="--d:0.46s"/>
<circle class="node" cx="366.9" cy="517.8" r="2.1" fill="#C9A961" style="--d:1.34s"/>
<circle class="node" cx="1102.4" cy="498.0" r="0.6" fill="#C9A961" style="--d:0.72s"/>
<circle class="node tw" cx="800.4" cy="280.3" r="0.9" fill="#4A2B5C" style="--d:0.4s"/>
<circle class="node" cx="80.6" cy="98.8" r="1.0" fill="#C9A961" style="--d:0.11s"/>
<circle class="node tw" cx="1073.1" cy="172.4" r="1.3" fill="#C9A961" style="--d:1.84s"/>
<circle class="node" cx="256.3" cy="583.6" r="0.7" fill="#C9A961" style="--d:2.58s"/>
<circle class="node" cx="89.3" cy="722.8" r="1.9" fill="#4A2B5C" style="--d:0.56s"/>
<circle class="node" cx="225.9" cy="559.0" r="1.8" fill="#C9A961" style="--d:2.64s"/>
<circle class="node" cx="305.9" cy="141.4" r="1.7" fill="#C9A961" style="--d:0.88s"/>
<circle class="node" cx="1092.9" cy="286.9" r="3.0" fill="#E7D199" style="--d:0.36s"/>
<circle class="node" cx="531.5" cy="125.5" r="2.6" fill="#E7D199" style="--d:0.97s"/>
<circle class="node" cx="186.3" cy="563.8" r="1.7" fill="#4A2B5C" style="--d:1.17s"/>
<circle class="node" cx="333.9" cy="489.1" r="4.8" fill="#E7D199" style="--d:0.84s"/>
<circle class="node tw" cx="657.2" cy="469.9" r="0.6" fill="#C9A961" style="--d:1.08s"/>
<circle class="node" cx="816.8" cy="434.0" r="1.9" fill="#C9A961" style="--d:2.29s"/>
<circle class="node" cx="661.7" cy="716.5" r="3.9" fill="#E7D199" style="--d:0.51s"/>
<circle class="node" cx="854.0" cy="445.7" r="2.4" fill="#C9A961" style="--d:2.37s"/>
<circle class="node" cx="903.1" cy="64.3" r="1.3" fill="#C9A961" style="--d:0.95s"/>
<circle class="node tw" cx="764.6" cy="267.2" r="0.6" fill="#C9A961" style="--d:2.45s"/>
<circle class="node" cx="849.3" cy="92.2" r="0.9" fill="#C9A961" style="--d:1.48s"/>
<circle class="node tw" cx="879.2" cy="371.7" r="1.0" fill="#C9A961" style="--d:1.62s"/>
<circle class="node" cx="832.5" cy="611.4" r="4.1" fill="#4A2B5C" style="--d:1.81s"/>
<circle class="node tw" cx="954.2" cy="401.3" r="1.2" fill="#C9A961" style="--d:0.88s"/>
<circle class="node" cx="900.2" cy="584.4" r="1.9" fill="#C9A961" style="--d:0.03s"/>
<circle class="node" cx="491.1" cy="111.7" r="3.5" fill="#E7D199" style="--d:1.7s"/>
<circle class="node" cx="63.6" cy="633.4" r="1.3" fill="#C9A961" style="--d:1.61s"/>
<circle class="node" cx="838.1" cy="247.6" r="0.8" fill="#C9A961" style="--d:0.44s"/>
<circle class="node" cx="243.2" cy="302.7" r="0.7" fill="#4A2B5C" style="--d:1.27s"/>
<circle class="node" cx="971.3" cy="422.1" r="0.7" fill="#C9A961" style="--d:2.33s"/>
<circle class="node" cx="305.5" cy="456.3" r="4.4" fill="#E7D199" style="--d:1.22s"/>
<circle class="node" cx="1075.5" cy="255.5" r="4.1" fill="#4A2B5C" style="--d:1.81s"/>
<circle class="node" cx="722.7" cy="490.5" r="2.4" fill="#C9A961" style="--d:0.41s"/>
<circle class="node" cx="189.9" cy="561.8" r="3.8" fill="#E7D199" style="--d:2.44s"/>
<circle class="node tw" cx="70.6" cy="483.6" r="1.2" fill="#C9A961" style="--d:1.45s"/>
<circle class="node" cx="779.2" cy="212.9" r="4.4" fill="#4A2B5C" style="--d:1.35s"/>
<circle class="node" cx="457.9" cy="217.0" r="1.4" fill="#C9A961" style="--d:2.65s"/>
<circle class="node tw" cx="258.6" cy="522.7" r="1.6" fill="#C9A961" style="--d:1.19s"/>
<circle class="node tw" cx="178.1" cy="122.4" r="1.2" fill="#C9A961" style="--d:2.62s"/>
<circle class="node" cx="541.3" cy="178.3" r="5.2" fill="#E7D199" style="--d:0.05s"/>
<circle class="node" cx="1141.6" cy="317.4" r="2.6" fill="#C9A961" style="--d:0.69s"/>
<circle class="node" cx="620.9" cy="311.1" r="0.8" fill="#C9A961" style="--d:1.32s"/>
<circle class="node tw" cx="836.6" cy="207.8" r="1.5" fill="#C9A961" style="--d:0.19s"/>
<circle class="node tw" cx="876.4" cy="687.9" r="1.7" fill="#C9A961" style="--d:2.04s"/>
<circle class="node" cx="363.7" cy="196.0" r="1.6" fill="#C9A961" style="--d:0.49s"/>
<circle class="node" cx="1123.7" cy="591.9" r="5.0" fill="#E7D199" style="--d:1.22s"/>
<circle class="node" cx="708.3" cy="177.5" r="2.7" fill="#E7D199" style="--d:1.95s"/>
<circle class="node" cx="830.0" cy="75.3" r="1.3" fill="#C9A961" style="--d:1.36s"/>
<circle class="node" cx="648.3" cy="608.9" r="0.7" fill="#C9A961" style="--d:1.43s"/>
<circle class="node" cx="392.2" cy="148.4" r="1.2" fill="#C9A961" style="--d:2.28s"/>
<circle class="node" cx="828.3" cy="532.2" r="3.5" fill="#E7D199" style="--d:1.37s"/>
<circle class="node" cx="652.4" cy="657.9" r="2.4" fill="#4A2B5C" style="--d:1.71s"/>
<circle class="node tw" cx="176.3" cy="275.0" r="1.5" fill="#C9A961" style="--d:1.05s"/>
<circle class="node" cx="1003.7" cy="521.4" r="0.9" fill="#C9A961" style="--d:2.48s"/>
<circle class="node" cx="937.4" cy="722.0" r="1.3" fill="#C9A961" style="--d:2.15s"/>
</g></svg>