<?xml version="1.0" encoding="UTF-8"?>
<svg xmlns="http://www.w3.org/2000/svg" viewBox="40 215 620 420" font-family="Inter, system-ui, sans-serif">
  <defs>
    <linearGradient id="moss" x1="0" y1="0" x2="0" y2="1">
      <stop offset="0" stop-color="#2D4A2B"/>
      <stop offset="1" stop-color="#1F3320"/>
    </linearGradient>
    <linearGradient id="trunk" x1="0" y1="0" x2="1" y2="0">
      <stop offset="0" stop-color="#5C3A1F"/>
      <stop offset="0.35" stop-color="#9C6B3F"/>
      <stop offset="0.7" stop-color="#7A4F2E"/>
      <stop offset="1" stop-color="#3E2812"/>
    </linearGradient>
    <radialGradient id="dome" cx="0.4" cy="0.35" r="0.85">
      <stop offset="0" stop-color="#3A5B36"/>
      <stop offset="0.6" stop-color="#2D4A2B"/>
      <stop offset="1" stop-color="#1F3320"/>
    </radialGradient>
    <path id="domeTextPath" d="M -52 64 Q 0 86 52 64"/>
    <clipPath id="domeClip">
      <path d="M -66 80 A 66 66 0 0 1 66 80 Z"/>
    </clipPath>
    <!-- Tagline-Split: oben Reflektionslila, unten Tinte (Schnitt bei Stein-Unterkante y=594) -->
    <linearGradient id="taglineSplit" gradientUnits="userSpaceOnUse" x1="0" y1="594" x2="0" y2="594.5">
      <stop offset="0" stop-color="#4A2B5C"/>
      <stop offset="1" stop-color="#1F1A14"/>
    </linearGradient>
  </defs>

  <!-- Kein Hintergrund-Halbkreis mehr – Logo schwebt frei -->


  <g transform="translate(350,300) scale(2.8)">

    <!-- ============================================== -->
    <!-- STEINE                                        -->
    <!-- ============================================== -->
    <g>
      <path d="M -72 96 Q -73 96 -73 97.5 L -73 103.5 Q -73 105 -71.5 105 L -52 105 Q -50.5 105 -50.5 103 L -50.5 96 Q -50.5 94.5 -52 94.5 L -68 94.5 L -69 95 L -71 94.5 Q -72 94.5 -72 96 Z" fill="#B8855E" stroke="#5C3A1F" stroke-width="0.45"/>
      <line x1="-66" y1="99" x2="-58" y2="99.3" stroke="#5C3A1F" stroke-width="0.3" opacity="0.5"/>
      <line x1="-71" y1="101" x2="-65" y2="101" stroke="#8A5E3B" stroke-width="0.3" opacity="0.6"/>
      <ellipse cx="-60" cy="105" rx="6" ry="1" fill="#7BA05B" opacity="0.55"/>

      <g transform="rotate(-2 -41 100)">
        <rect x="-49" y="95.5" width="16" height="9.5" rx="2.5" ry="2" fill="#A87850" stroke="#5C3A1F" stroke-width="0.45"/>
        <line x1="-46" y1="99" x2="-38" y2="99.5" stroke="#5C3A1F" stroke-width="0.25" opacity="0.5"/>
        <ellipse cx="-44" cy="97" rx="3" ry="0.6" fill="#C9A47E" opacity="0.6"/>
      </g>

      <path d="M -32 94.5 Q -33 94.5 -33 96 L -33 103.5 Q -33 105 -31 105 L -6 105 Q -4.5 105 -4.5 103.5 L -4.5 96 Q -5 94.5 -6 94.5 L -22 94.5 L -23 95.5 L -28 94.5 Z" fill="#C9A47E" stroke="#5C3A1F" stroke-width="0.45"/>
      <line x1="-28" y1="99" x2="-12" y2="99.4" stroke="#5C3A1F" stroke-width="0.3" opacity="0.5"/>
      <line x1="-25" y1="102" x2="-9" y2="102.2" stroke="#5C3A1F" stroke-width="0.25" opacity="0.45"/>
      <ellipse cx="-15" cy="105" rx="9" ry="1.1" fill="#4A6843" opacity="0.5"/>
      <ellipse cx="-22" cy="97" rx="3.5" ry="1.2" fill="#7BA05B" opacity="0.5"/>

      <rect x="-3" y="95" width="20" height="10" rx="2.5" ry="2" fill="#B8855E" stroke="#5C3A1F" stroke-width="0.45"/>
      <line x1="0" y1="99" x2="13" y2="99.3" stroke="#5C3A1F" stroke-width="0.3" opacity="0.5"/>
      <ellipse cx="2" cy="105" rx="5" ry="0.9" fill="#7BA05B" opacity="0.5"/>

      <rect x="18" y="94" width="14" height="11" rx="2" ry="2" fill="#8A5E3B" stroke="#5C3A1F" stroke-width="0.45"/>
      <line x1="20" y1="98" x2="29" y2="98.3" stroke="#5C3A1F" stroke-width="0.25" opacity="0.55"/>

      <path d="M 33 95 Q 32 95 32 96.5 L 32 103.5 Q 32 105 33.5 105 L 53 105 Q 55 105 55 103.5 L 55 96 L 53 95 L 50 96 L 47 95 Z" fill="#A87850" stroke="#5C3A1F" stroke-width="0.45"/>
      <line x1="35" y1="99" x2="51" y2="99.4" stroke="#5C3A1F" stroke-width="0.3" opacity="0.5"/>
      <ellipse cx="42" cy="105" rx="7" ry="1" fill="#4A6843" opacity="0.5"/>

      <rect x="56" y="94" width="16" height="11" rx="3" ry="2" fill="#C9A47E" stroke="#5C3A1F" stroke-width="0.45"/>
      <line x1="59" y1="99" x2="69" y2="99.3" stroke="#5C3A1F" stroke-width="0.3" opacity="0.5"/>
      <ellipse cx="63" cy="105" rx="5" ry="0.9" fill="#7BA05B" opacity="0.55"/>
      <ellipse cx="65" cy="97" rx="3" ry="1" fill="#7BA05B" opacity="0.4"/>
    </g>

    <!-- ============================================== -->
    <!-- BAUMSTÄMME                                    -->
    <!-- ============================================== -->

    <!-- LINKE SÄULE -->
    <g>
      <path d="M -59.5 70 C -60 76 -60.5 84 -61 90 C -61.5 95 -62.5 98 -63 99 L -49 99 C -49.5 98 -50.5 95 -51 90 C -51.5 84 -52 76 -52.2 70 Z" fill="url(#trunk)"/>
      <path d="M -58.5 71 C -59 78 -58.5 86 -59 93 C -59.5 96 -60 98" stroke="#3E2812" stroke-width="0.5" fill="none" opacity="0.7"/>
      <path d="M -57 71 C -56.5 79 -57 87 -56.5 94 C -56 97 -56.5 98" stroke="#3E2812" stroke-width="0.4" fill="none" opacity="0.55"/>
      <path d="M -55 71 C -55.5 80 -54.8 88 -55.2 95 C -55.5 97 -55 98" stroke="#5C3A1F" stroke-width="0.35" fill="none" opacity="0.5"/>
      <path d="M -53.5 71 C -53 79 -53.5 87 -53 94 C -52.7 97 -53 98" stroke="#3E2812" stroke-width="0.45" fill="none" opacity="0.65"/>
      <path d="M -59.2 73 C -59.5 81 -59.2 90 -59.5 96" stroke="#B07842" stroke-width="0.4" fill="none" opacity="0.55"/>
      <line x1="-58" y1="78" x2="-54" y2="78.3" stroke="#3E2812" stroke-width="0.4" opacity="0.6"/>
      <line x1="-59" y1="86" x2="-53" y2="86.4" stroke="#3E2812" stroke-width="0.5" opacity="0.7"/>
      <line x1="-58" y1="93" x2="-54" y2="93.3" stroke="#3E2812" stroke-width="0.35" opacity="0.55"/>
      <ellipse cx="-56.5" cy="83" rx="1.4" ry="1" fill="#2A1A0A" opacity="0.75"/>
      <ellipse cx="-56.5" cy="83" rx="0.5" ry="0.4" fill="#5C3A1F" opacity="0.85"/>
      <ellipse cx="-54" cy="92" rx="0.9" ry="0.7" fill="#2A1A0A" opacity="0.6"/>
    </g>

    <!-- MITTLERE SÄULE -->
    <g>
      <path d="M -3.5 70 C -4 76 -4 84 -4.2 90 C -4.5 95 -5.3 98 -5.5 99 L 5.5 99 C 5.3 98 4.5 95 4.2 90 C 4 84 4 76 3.5 70 Z" fill="url(#trunk)"/>
      <path d="M -2.5 71 C -3 78 -2.5 86 -3 93 C -3.3 96 -3.7 98" stroke="#3E2812" stroke-width="0.45" fill="none" opacity="0.65"/>
      <path d="M -1 71 C -0.5 79 -1 87 -0.5 94 C -0.2 97 -0.5 98" stroke="#3E2812" stroke-width="0.4" fill="none" opacity="0.55"/>
      <path d="M 1 71 C 1.5 80 0.8 88 1.2 95 C 1.5 97 1 98" stroke="#5C3A1F" stroke-width="0.35" fill="none" opacity="0.5"/>
      <path d="M 2.5 71 C 3 79 2.5 87 3 94 C 3.3 97 3 98" stroke="#3E2812" stroke-width="0.5" fill="none" opacity="0.7"/>
      <path d="M -3.2 73 C -3.5 81 -3.2 90 -3.5 96" stroke="#B07842" stroke-width="0.35" fill="none" opacity="0.5"/>
      <line x1="-3" y1="79" x2="3" y2="79.3" stroke="#3E2812" stroke-width="0.4" opacity="0.6"/>
      <line x1="-3.5" y1="87" x2="3.5" y2="87.4" stroke="#3E2812" stroke-width="0.5" opacity="0.7"/>
      <line x1="-3" y1="94" x2="3" y2="94.3" stroke="#3E2812" stroke-width="0.4" opacity="0.6"/>
      <ellipse cx="2" cy="84" rx="1.1" ry="0.8" fill="#2A1A0A" opacity="0.7"/>
      <ellipse cx="-1.5" cy="92" rx="0.8" ry="0.6" fill="#2A1A0A" opacity="0.55"/>
    </g>

    <!-- RECHTE SÄULE -->
    <g>
      <path d="M 52.2 70 C 51.7 76 51.2 84 50.7 90 C 50.2 95 49.5 98 49 99 L 63 99 C 62.5 98 61.5 95 61 90 C 60.5 84 60 76 59.5 70 Z" fill="url(#trunk)"/>
      <path d="M 53.5 71 C 53 79 53.5 87 53 94 C 52.7 97 53 98" stroke="#3E2812" stroke-width="0.45" fill="none" opacity="0.65"/>
      <path d="M 55 71 C 55.5 80 54.8 88 55.2 95 C 55.5 97 55 98" stroke="#5C3A1F" stroke-width="0.35" fill="none" opacity="0.5"/>
      <path d="M 57 71 C 56.5 79 57 87 56.5 94 C 56 97 56.5 98" stroke="#3E2812" stroke-width="0.4" fill="none" opacity="0.55"/>
      <path d="M 58.5 71 C 59 78 58.5 86 59 93 C 59.5 96 60 98" stroke="#3E2812" stroke-width="0.5" fill="none" opacity="0.7"/>
      <path d="M 59.2 73 C 59.5 81 59.2 90 59.5 96" stroke="#B07842" stroke-width="0.4" fill="none" opacity="0.55"/>
      <line x1="54" y1="78" x2="58" y2="78.3" stroke="#3E2812" stroke-width="0.4" opacity="0.6"/>
      <line x1="53" y1="86" x2="59" y2="86.4" stroke="#3E2812" stroke-width="0.5" opacity="0.7"/>
      <line x1="54" y1="93" x2="58" y2="93.3" stroke="#3E2812" stroke-width="0.35" opacity="0.55"/>
      <ellipse cx="57" cy="81" rx="1.1" ry="0.8" fill="#2A1A0A" opacity="0.7"/>
      <ellipse cx="54" cy="92" rx="1.3" ry="0.9" fill="#2A1A0A" opacity="0.75"/>
      <ellipse cx="54" cy="92" rx="0.5" ry="0.4" fill="#5C3A1F" opacity="0.85"/>
    </g>

    <ellipse cx="-40" cy="104.5" rx="2.5" ry="0.7" fill="#7BA05B" opacity="0.55"/>
    <ellipse cx="40" cy="104.5" rx="2.5" ry="0.7" fill="#4A6843" opacity="0.5"/>

    <!-- ============================================== -->
    <!-- KUPPEL                                        -->
    <!-- ============================================== -->
    <path d="M -66 80 A 66 66 0 0 1 66 80 Z" fill="#F4ECD8" stroke="#C9A961" stroke-width="2"/>

    <!-- ============================================== -->
    <!-- 3D-WIREFRAME auf Halbkugel                    -->
    <!-- Latitudinal als Ellipsen (Foreshortening)     -->
    <!-- Meridiane als Bögen vom Rand zum Pol          -->
    <!-- Clean-Zone: y>53 in |x|<52                    -->
    <!-- ============================================== -->
    <g clip-path="url(#domeClip)">

      <!-- LATITUDINAL · Ellipsen (3D-Foreshortening) -->
      <g fill="none" stroke="#C9A961">
        <ellipse cx="0" cy="18" rx="10" ry="2.5" stroke-width="0.5" opacity="0.8"/>
        <ellipse cx="0" cy="28" rx="22" ry="5.5" stroke-width="0.55" opacity="0.85"/>
        <ellipse cx="0" cy="40" rx="35" ry="9" stroke-width="0.6" opacity="0.85"/>
        <!-- L4 nur Oberbogen, leicht höher · weiter weg vom Schriftzug -->
        <path d="M -46 49 A 46 11.5 0 0 0 46 49" stroke-width="0.65" opacity="0.85"/>
      </g>

      <!-- MERIDIANE · innere (start y=49, höher als vorher) -->
      <g fill="none" stroke="#C9A961">
        <path d="M -40 49 Q -27 16 0 14" stroke-width="0.55" opacity="0.85"/>
        <path d="M -26 49 Q -17 16 0 14" stroke-width="0.5" opacity="0.8"/>
        <path d="M 14 47 Q 10 16 0 14" stroke-width="0.45" opacity="0.75"/>
        <path d="M 27 49 Q 18 16 0 14" stroke-width="0.5" opacity="0.8"/>
        <path d="M 41 49 Q 28 16 0 14" stroke-width="0.55" opacity="0.85"/>
      </g>

      <!-- MERIDIANE · außen reduziert (1 pro Seite, Andeutung nach unten) -->
      <g fill="none" stroke="#C9A961">
        <path d="M -66 78 Q -58 38 -5 15" stroke-width="0.55" opacity="0.8"/>
        <path d="M 66 78 Q 58 38 5 15" stroke-width="0.55" opacity="0.8"/>
      </g>

      <!-- WILDE Linien · 1 Snake pro Seite (Andeutung Rand → Mitte) -->
      <g fill="none" stroke="#C9A961">
        <path d="M -55 75 C -55 50 -55 30 -10 20" stroke-width="0.5" opacity="0.7"/>
        <path d="M 60 70 C 58 50 50 30 12 18" stroke-width="0.45" opacity="0.7" stroke-dasharray="2 1"/>
      </g>

      <!-- ZENTRALE asymmetrische Verbindungen (cleaner) -->
      <g fill="none" stroke="#C9A961">
        <!-- S-Kurve quer durch obere Hälfte -->
        <path d="M -38 28 Q -15 20 5 18 Q 25 22 42 30" stroke-width="0.4" opacity="0.7"/>
        <!-- Spiraler Pfad zum Pol -->
        <path d="M -45 38 C -32 30 -20 22 -8 16" stroke-width="0.4" opacity="0.65"/>
        <!-- Asymmetrische Diagonale -->
        <path d="M -28 22 C -10 28 8 35 22 32" stroke-width="0.35" opacity="0.6"/>
      </g>

      <!-- DÜNNE GESTRICHELTE SYSTEM-VERNETZUNGEN -->
      <g fill="none" stroke="#C9A961">
        <!-- Quer von links-mitte zu rechts-oben -->
        <path d="M -32 38 Q -5 28 30 22" stroke-width="0.3" opacity="0.7" stroke-dasharray="1 1.5"/>
        <!-- Asymmetrischer Sprung von rechts-unten zu Pol-Region -->
        <path d="M 38 42 C 22 35 8 25 -3 16" stroke-width="0.3" opacity="0.65" stroke-dasharray="1.2 1.2"/>
        <!-- Feiner Bogen über der Pol-Region (asymm) -->
        <path d="M -22 22 Q 0 17 18 24" stroke-width="0.25" opacity="0.6" stroke-dasharray="0.8 1"/>
      </g>

      <!-- Wenige kurze Verbinder · zentral -->
      <g fill="none" stroke="#C9A961" stroke-width="0.3" opacity="0.5">
        <path d="M -8 18 C -4 22 -2 26 -3 30"/>
        <path d="M 18 25 C 24 28 22 32 28 35" stroke-dasharray="1 1"/>
        <path d="M -32 38 C -28 42 -22 40 -18 44"/>
      </g>

      <!-- GOLDKNOTEN · an Pol & Knotenpunkten -->
      <g fill="#C9A961">
        <!-- Pol -->
        <circle cx="0" cy="14" r="1.6"/>
        <!-- Latitude-Meridian Kreuzungspunkte -->
        <circle cx="-22" cy="28" r="0.85"/>
        <circle cx="22" cy="28" r="0.85"/>
        <circle cx="-10" cy="18" r="0.6"/>
        <circle cx="10" cy="18" r="0.6"/>
        <circle cx="-35" cy="40" r="0.85"/>
        <circle cx="35" cy="40" r="0.85"/>
        <circle cx="-48" cy="51" r="0.85"/>
        <circle cx="48" cy="51" r="0.85"/>
        <!-- Inner-Meridian Endpunkte -->
        <circle cx="-42" cy="52" r="0.7"/>
        <circle cx="-28" cy="52" r="0.6"/>
        <circle cx="-15" cy="50" r="0.5"/>
        <circle cx="15" cy="50" r="0.5"/>
        <circle cx="28" cy="52" r="0.6"/>
        <circle cx="42" cy="52" r="0.7"/>
        <!-- Outer-Meridian Edge-Punkte -->
        <circle cx="-66" cy="78" r="1"/>
        <circle cx="66" cy="78" r="1"/>
        <circle cx="-64" cy="65" r="0.85"/>
        <circle cx="64" cy="65" r="0.85"/>
        <circle cx="-55" cy="78" r="0.7"/>
        <circle cx="55" cy="78" r="0.7"/>
        <!-- Mid-latitude Punkte (auf L2, L3) -->
        <circle cx="-15" cy="29.5" r="0.45"/>
        <circle cx="15" cy="29.5" r="0.45"/>
        <circle cx="-25" cy="38" r="0.5"/>
        <circle cx="25" cy="38" r="0.5"/>
        <circle cx="0" cy="22" r="0.5"/>
        <!-- Asymmetrische Streupunkte -->
        <circle cx="-40" cy="42" r="0.4"/>
        <circle cx="40" cy="42" r="0.4"/>
        <circle cx="-18" cy="38" r="0.35"/>
        <circle cx="22" cy="35" r="0.35"/>
        <circle cx="-8" cy="35" r="0.3"/>
        <circle cx="3" cy="35" r="0.3"/>
        <circle cx="-52" cy="53" r="0.4"/>
        <circle cx="52" cy="53" r="0.4"/>
      </g>

      <!-- Offene Kreise · nur Kontur, asymmetrisch verteilt -->
      <g fill="none" stroke="#C9A961">
        <circle cx="-30" cy="22" r="2.2" stroke-width="0.45" opacity="0.85"/>
        <circle cx="20" cy="42" r="1.8" stroke-width="0.4" opacity="0.8"/>
        <circle cx="38" cy="22" r="1.5" stroke-width="0.4" opacity="0.75"/>
        <circle cx="-18" cy="45" r="2" stroke-width="0.4" opacity="0.8"/>
      </g>
    </g>

    <!-- SCHRIFTZUG -->
    <text fill="#C9A961" font-family="'Cormorant Garamond', Georgia, serif" font-size="15" font-weight="700" letter-spacing="1">
      <textPath href="#domeTextPath" startOffset="50%" text-anchor="middle">Impact Up</textPath>
    </text>

    <!-- GAJUR -->
    <ellipse cx="0" cy="14" rx="13" ry="3" fill="#C9A961"/>
    <ellipse cx="0" cy="5" rx="7" ry="7" fill="#C9A961"/>
    <line x1="0" y1="-2" x2="0" y2="-22" stroke="#C9A961" stroke-width="2.5"/>
    <circle cx="0" cy="-26" r="3.5" fill="#C9A961"/>
  </g>

  <!-- ============================================== -->
  <!-- TAGLINE · "Institut für Systems Change"       -->
  <!-- Reflektionslila · Cormorant 600 · Logo-Breite -->
  <!-- ============================================== -->
  <text x="350" y="624" text-anchor="middle"
    fill="#C9A961"
    font-family="'Cormorant Garamond', Georgia, serif"
    font-size="22"
    font-weight="600"
    textLength="380"
    lengthAdjust="spacingAndGlyphs">Institut für Systems Change</text>
</svg>
