<svg xmlns="http://www.w3.org/2000/svg" viewBox="0 0 880 600" role="img" aria-labelledby="titel beschreibung">
  <title id="titel">Die Ebenen des Handelns – und die Ebene dazwischen</title>
  <desc id="beschreibung">Drei Ebenen des Handelns bei Ruth Seliger: Person mit Resonanz, Organisation mit Struktur, Gesellschaft mit Kooperation. Impact Up zieht zwischen Organisation und Gesellschaft die Ebene der Wirkungsfelder ein; die vier Felder sind untereinander vernetzt.</desc>

  <rect width="880" height="600" fill="#F4ECD8"/>

  <text x="60" y="44" font-family="Inter, system-ui, sans-serif" font-size="13" font-weight="600" letter-spacing="1.6" fill="#8A5E3B">EBENEN DES HANDELNS</text>

  <!-- Verknüpfung der Ebenen -->
  <g fill="none" stroke="#C9A961">
    <path d="M300 500 C 286 484, 314 470, 300 456" stroke-width="1.3"/>
    <path d="M444 500 C 428 482, 456 472, 440 456" stroke-width="1.3"/>
    <path d="M596 500 C 610 484, 584 470, 600 456" stroke-width="1.1" opacity="0.75"/>
    <path d="M356 496 C 400 482, 500 476, 556 462" stroke-width="0.8" stroke-dasharray="2 2.5" opacity="0.7"/>

    <path d="M300 372 C 286 356, 314 342, 300 328" stroke-width="1.3"/>
    <path d="M444 372 C 428 354, 456 344, 440 328" stroke-width="1.3"/>
    <path d="M600 372 C 586 356, 612 342, 598 328" stroke-width="1.1" opacity="0.75"/>
    <path d="M336 368 C 400 352, 500 348, 566 334" stroke-width="0.8" stroke-dasharray="2 2.5" opacity="0.7"/>

    <path d="M300 206 C 286 190, 314 176, 300 162" stroke-width="1.3"/>
    <path d="M440 206 C 456 188, 428 178, 444 162" stroke-width="1.3"/>
    <path d="M598 206 C 612 190, 586 176, 600 162" stroke-width="1.1" opacity="0.75"/>
    <path d="M348 202 C 412 186, 512 182, 578 168" stroke-width="0.8" stroke-dasharray="2 2.5" opacity="0.7"/>
  </g>
  <g fill="#C9A961">
    <circle cx="300" cy="478" r="2.8"/><circle cx="437" cy="478" r="2.2"/><circle cx="597" cy="478" r="1.8"/>
    <circle cx="300" cy="350" r="2.8"/><circle cx="437" cy="350" r="2.2"/><circle cx="599" cy="350" r="1.8"/>
    <circle cx="300" cy="184" r="2.8"/><circle cx="437" cy="184" r="2.2"/><circle cx="599" cy="184" r="1.8"/>
  </g>

  <!-- Ebene: Gesellschaft -->
  <rect x="60" y="74" width="760" height="88" rx="2" fill="#FAF6EA" stroke="#B8855E" stroke-width="1"/>
  <text x="88" y="112" font-family="Cormorant Garamond, Georgia, serif" font-size="26" fill="#2D4A2B">Gesellschaft</text>
  <text x="792" y="112" text-anchor="end" font-family="Cormorant Garamond, Georgia, serif" font-size="30" font-weight="600" fill="#C9A961">Kooperation</text>
  <text x="88" y="141" font-family="Inter, system-ui, sans-serif" font-size="14.5" fill="#1F1A14">strategische Allianzen bilden · Kommunikation und Kooperation gestalten</text>

  <!-- Ebene: Wirkungsfelder -->
  <rect x="60" y="206" width="760" height="132" rx="2" fill="#2D4A2B" stroke="#C9A961" stroke-width="1.6"/>
  <text x="88" y="244" font-family="Cormorant Garamond, Georgia, serif" font-size="26" fill="#F4ECD8">Wirkungsfelder</text>
  <text x="792" y="240" text-anchor="end" font-family="Inter, system-ui, sans-serif" font-size="12.5" font-weight="600" letter-spacing="1.4" fill="#C9A961">VON IMPACT UP EINGEZOGEN</text>
  <text x="88" y="268" font-family="Inter, system-ui, sans-serif" font-size="14.5" fill="#F4ECD8">Kohärenz und Komplementarität sichtbar machen · an Feldgrenzen verabreden</text>

  <g fill="none" stroke="#C9A961" opacity="0.9">
    <path d="M252 302 C 268 292, 284 312, 300 302" stroke-width="1"/>
    <path d="M464 302 C 480 292, 496 312, 512 302" stroke-width="1"/>
    <path d="M634 302 C 650 292, 666 312, 682 302" stroke-width="1"/>
    <path d="M170 322 C 244 334, 320 334, 382 324" stroke-width="0.8" stroke-dasharray="2 2"/>
    <path d="M382 324 C 452 334, 528 334, 573 324" stroke-width="0.8" stroke-dasharray="2 2"/>
    <path d="M186 326 C 320 340, 560 340, 730 326" stroke-width="0.7" stroke-dasharray="1.5 2.5" opacity="0.7"/>
  </g>
  <g fill="#C9A961">
    <circle cx="276" cy="301" r="2.4"/><circle cx="488" cy="301" r="2.4"/><circle cx="658" cy="301" r="2.4"/>
  </g>
  <g font-family="Inter, system-ui, sans-serif" font-size="13.5" fill="#F4ECD8">
    <rect x="88" y="284" width="164" height="36" rx="2" fill="#2D4A2B" stroke="#C9A961" stroke-width="0.9"/>
    <text x="170" y="307" text-anchor="middle">Ökosystem Erde</text>
    <rect x="300" y="284" width="164" height="36" rx="2" fill="#2D4A2B" stroke="#C9A961" stroke-width="0.9"/>
    <text x="382" y="307" text-anchor="middle">Soziale Teilhabe</text>
    <rect x="512" y="284" width="122" height="36" rx="2" fill="#2D4A2B" stroke="#C9A961" stroke-width="0.9"/>
    <text x="573" y="307" text-anchor="middle">Demokratie</text>
    <rect x="682" y="284" width="110" height="36" rx="2" fill="#2D4A2B" stroke="#C9A961" stroke-width="0.9"/>
    <text x="737" y="300" text-anchor="middle">Frieden und</text>
    <text x="737" y="315" text-anchor="middle">Gewaltfreiheit</text>
  </g>

  <!-- Ebene: Organisation -->
  <rect x="60" y="372" width="760" height="88" rx="2" fill="#FAF6EA" stroke="#B8855E" stroke-width="1"/>
  <text x="88" y="410" font-family="Cormorant Garamond, Georgia, serif" font-size="26" fill="#2D4A2B">Organisation</text>
  <text x="792" y="410" text-anchor="end" font-family="Cormorant Garamond, Georgia, serif" font-size="30" font-weight="600" fill="#C9A961">Struktur</text>
  <text x="88" y="439" font-family="Inter, system-ui, sans-serif" font-size="14.5" fill="#1F1A14">Organisationen zur Transformation aufbauen</text>

  <!-- Ebene: Person -->
  <rect x="60" y="500" width="760" height="88" rx="2" fill="#FAF6EA" stroke="#B8855E" stroke-width="1"/>
  <text x="88" y="538" font-family="Cormorant Garamond, Georgia, serif" font-size="26" fill="#2D4A2B">Person</text>
  <text x="792" y="538" text-anchor="end" font-family="Cormorant Garamond, Georgia, serif" font-size="30" font-weight="600" fill="#C9A961">Resonanz</text>
  <text x="88" y="567" font-family="Inter, system-ui, sans-serif" font-size="14.5" fill="#1F1A14">systemisch denken lernen</text>
</svg>
