<?xml version="1.0" encoding="UTF-8"?>
<svg xmlns="http://www.w3.org/2000/svg" viewBox="0 0 2000 100" preserveAspectRatio="xMidYMid meet" fill="none" stroke="#C9A961">
  <g transform="translate(150,40)" stroke-width="1">
    <path d="M -22 52 L -18 36 Q -16 28 -10 26 L 10 26 Q 16 28 18 36 L 22 52"/>
    <path d="M -16 26 L -13 14 Q -11 8 -6 6 L 6 6 Q 11 8 13 14 L 16 26"/>
    <path d="M -10 6 L -8 -4 Q -6 -8 -3 -10 L 3 -10 Q 6 -8 8 -4 L 10 6"/>
    <line x1="0" y1="-10" x2="0" y2="-22" stroke-width="1.4"/>
    <circle cx="0" cy="-25" r="1.8" fill="#C9A961" stroke="none"/>
  </g>
  <g transform="translate(310,40)" stroke-width="0.9">
    <line x1="-14" y1="20" x2="-14" y2="52"/><line x1="0" y1="14" x2="0" y2="52"/><line x1="14" y1="20" x2="14" y2="52"/>
    <circle cx="-14" cy="22" r="1.4" fill="#C9A961" stroke="none"/><circle cx="0" cy="14" r="1.7" fill="#C9A961" stroke="none"/><circle cx="14" cy="22" r="1.4" fill="#C9A961" stroke="none"/>
  </g>
  <path d="M 150 18 Q 230 8 310 26" stroke-width="0.8" opacity="0.7"/>
  <g transform="translate(440,40)" stroke-width="0.9">
    <path d="M -18 52 A 18 14 0 0 1 18 52"/><line x1="0" y1="38" x2="0" y2="20"/>
    <circle cx="0" cy="18" r="2.2" fill="#C9A961" stroke="none"/><circle cx="0" cy="13" r="1.4" fill="#C9A961" stroke="none"/>
  </g>
  <path d="M 310 14 Q 380 -2 440 16" stroke-width="0.7" opacity="0.6"/>
  <g transform="translate(560,52)" stroke-width="0.9">
    <path d="M -28 40 A 28 28 0 0 1 28 40" opacity="0.85"/><path d="M -20 40 A 20 20 0 0 1 20 40" stroke-width="0.6" opacity="0.55"/>
    <line x1="0" y1="12" x2="0" y2="24" stroke-width="1.1"/><circle cx="0" cy="10" r="1.7" fill="#C9A961" stroke="none"/>
  </g>
  <g transform="translate(700,40)" stroke-width="1">
    <path d="M -20 52 L -16 32 Q -14 24 -8 22 L 8 22 Q 14 24 16 32 L 20 52"/>
    <path d="M -13 22 L -10 8 Q -8 2 -3 0 L 3 0 Q 8 2 10 8 L 13 22"/>
    <line x1="0" y1="0" x2="0" y2="-18" stroke-width="1.4"/><circle cx="0" cy="-21" r="2" fill="#C9A961" stroke="none"/>
  </g>
  <path d="M 560 38 Q 620 22 700 -10" stroke-width="0.7" opacity="0.6"/>
  <g transform="translate(840,40)" stroke-width="0.9">
    <line x1="-8" y1="22" x2="-8" y2="52"/><line x1="8" y1="22" x2="8" y2="52"/><path d="M -10 22 Q 0 14 10 22"/>
    <circle cx="0" cy="13" r="1.5" fill="#C9A961" stroke="none"/>
  </g>
  <g transform="translate(960,40)" stroke-width="0.9">
    <path d="M -12 52 A 12 10 0 0 1 12 52"/><line x1="0" y1="42" x2="0" y2="32"/><circle cx="0" cy="30" r="1.5" fill="#C9A961" stroke="none"/>
  </g>
  <path d="M 700 -22 Q 870 -8 960 28" stroke-width="0.8" opacity="0.55"/>
  <path d="M 840 12 L 960 30" stroke-width="0.6" opacity="0.5"/>
  <g transform="translate(1100,40)" stroke-width="1">
    <path d="M -24 52 L -20 34 Q -18 26 -11 24 L 11 24 Q 18 26 20 34 L 24 52"/>
    <path d="M -17 24 L -14 12 Q -12 6 -7 4 L 7 4 Q 12 6 14 12 L 17 24"/>
    <path d="M -10 4 L -8 -6 Q -6 -10 -3 -12 L 3 -12 Q 6 -10 8 -6 L 10 4"/>
    <line x1="0" y1="-12" x2="0" y2="-26" stroke-width="1.4"/><circle cx="0" cy="-29" r="2.1" fill="#C9A961" stroke="none"/>
  </g>
  <g transform="translate(1280,40)" stroke-width="0.85">
    <line x1="-24" y1="28" x2="-24" y2="52"/><line x1="-12" y1="22" x2="-12" y2="52"/><line x1="0" y1="18" x2="0" y2="52"/><line x1="12" y1="22" x2="12" y2="52"/><line x1="24" y1="28" x2="24" y2="52"/>
    <path d="M -28 28 Q 0 8 28 28" stroke-width="0.9" opacity="0.85"/>
    <circle cx="-24" cy="28" r="1.2" fill="#C9A961" stroke="none"/><circle cx="0" cy="9" r="1.8" fill="#C9A961" stroke="none"/><circle cx="24" cy="28" r="1.2" fill="#C9A961" stroke="none"/>
  </g>
  <path d="M 1100 -28 Q 1180 -18 1280 6" stroke-width="0.85" opacity="0.65"/>
  <g transform="translate(1480,52)" stroke-width="1">
    <path d="M -36 40 A 36 36 0 0 1 36 40"/><path d="M -28 40 A 28 28 0 0 1 28 40" stroke-width="0.6" opacity="0.6"/>
    <line x1="0" y1="4" x2="0" y2="-14" stroke-width="1.4"/><circle cx="0" cy="-17" r="2.2" fill="#C9A961" stroke="none"/>
  </g>
  <g transform="translate(1640,40)" stroke-width="0.9">
    <path d="M -14 52 L -11 38 Q -9 32 -5 30 L 5 30 Q 9 32 11 38 L 14 52"/><line x1="0" y1="30" x2="0" y2="20"/><circle cx="0" cy="18" r="1.4" fill="#C9A961" stroke="none"/>
  </g>
  <path d="M 1280 4 Q 1380 -10 1480 14" stroke-width="0.85" opacity="0.6"/>
  <path d="M 1480 38 Q 1560 28 1640 32" stroke-width="0.7" opacity="0.55"/>
  <g transform="translate(1780,40)" stroke-width="0.9">
    <line x1="-10" y1="24" x2="-10" y2="52"/><line x1="10" y1="24" x2="10" y2="52"/><path d="M -12 24 Q 0 14 12 24"/>
    <circle cx="0" cy="13" r="1.6" fill="#C9A961" stroke="none"/>
  </g>
  <g transform="translate(1900,40)" stroke-width="0.9">
    <path d="M -10 52 A 10 8 0 0 1 10 52"/><line x1="0" y1="44" x2="0" y2="36"/><circle cx="0" cy="34" r="1.3" fill="#C9A961" stroke="none"/>
  </g>
  <path d="M 1640 30 Q 1720 12 1780 26" stroke-width="0.7" opacity="0.55"/>
  <path d="M 1780 12 Q 1840 18 1900 32" stroke-width="0.7" opacity="0.55"/>
  <line x1="0" y1="92" x2="2000" y2="92" stroke-width="0.7" opacity="0.5"/>
  <line x1="0" y1="78" x2="2000" y2="78" stroke-width="0.4" opacity="0.35" stroke-dasharray="2 4"/>
</svg>
